<?xml version="1.0" standalone="no"?>
<!DOCTYPE svg PUBLIC "-//W3C//DTD SVG 20010904//EN"
 "http://www.w3.org/TR/2001/REC-SVG-20010904/DTD/svg10.dtd">
<svg version="1.0" xmlns="http://www.w3.org/2000/svg"
 width="500.000000pt" height="500.000000pt" viewBox="0 0 500.000000 500.000000"
 preserveAspectRatio="xMidYMid meet">

<g transform="translate(0.000000,500.000000) scale(0.100000,-0.100000)"
fill="#000000" stroke="none">
<path d="M0 2500 l0 -2500 2500 0 2500 0 0 2500 0 2500 -2500 0 -2500 0 0
-2500z m990 1930 l0 -60 -37 0 -38 0 32 -20 c39 -23 53 -48 53 -94 l0 -36 -49
0 -48 0 -6 42 c-7 51 -40 86 -93 98 -21 5 -92 10 -156 10 l-118 0 0 60 0 60
230 0 230 0 0 -60z m-263 -260 c48 -29 75 -91 81 -182 4 -76 5 -78 31 -78 15
0 37 7 49 16 43 29 20 124 -30 124 -16 0 -18 8 -18 64 l0 64 38 -10 c45 -12
89 -51 108 -95 8 -18 14 -66 14 -106 0 -60 -4 -80 -23 -107 -41 -62 -62 -68
-264 -72 l-183 -4 0 57 c0 50 3 57 22 63 21 5 21 6 6 18 -44 33 -52 154 -15
209 12 18 34 39 47 46 37 19 101 16 137 -7z m2243 -145 c263 -43 503 -173 690
-372 444 -475 431 -1212 -30 -1673 -338 -338 -835 -445 -1284 -276 -140 53
-281 143 -397 253 -496 471 -506 1246 -24 1728 275 276 662 402 1045 340z
m-1980 -405 l0 -60 -30 0 -30 0 32 -29 c32 -29 33 -31 33 -114 0 -77 -2 -88
-25 -112 -48 -51 -65 -55 -260 -55 l-180 0 0 59 0 59 169 4 c197 4 211 9 211
83 0 81 -58 104 -257 105 l-123 0 0 60 0 60 230 0 230 0 0 -60z m-105 -467
c86 -45 119 -106 113 -211 -3 -63 -7 -77 -26 -93 -23 -18 -22 -18 85 -21 l108
-3 3 -62 3 -63 -321 0 -320 0 0 66 0 66 31 -4 30 -5 -25 21 c-67 55 -61 213
11 278 10 9 39 26 63 38 60 28 185 24 245 -7z m-51 -534 c108 -30 166 -112
166 -233 -1 -153 -88 -236 -246 -236 -106 0 -192 58 -223 149 -16 48 -14 145
5 189 45 108 175 165 298 131z m156 -604 c0 -62 -1 -65 -24 -65 l-24 0 29 -29
c26 -26 29 -36 29 -92 0 -67 -25 -123 -60 -134 -17 -6 -15 -10 20 -44 39 -37
40 -40 40 -102 0 -47 -6 -73 -20 -97 -33 -54 -66 -62 -270 -62 l-180 0 0 59 0
59 169 3 c194 5 211 11 211 80 0 65 -24 73 -217 77 l-164 4 3 59 3 58 161 4
c196 4 217 12 212 80 -5 66 -36 77 -225 77 l-153 0 0 65 0 65 230 0 230 0 0
-65z m-356 -726 c50 -39 25 -119 -36 -119 -42 0 -65 16 -73 49 -8 36 8 69 38
81 33 13 42 12 71 -11z m666 -421 c0 -116 1 -121 16 -99 36 51 135 66 212 31
34 -15 47 -29 63 -64 17 -40 19 -64 17 -218 l-3 -173 -60 0 -60 0 -3 172 -2
172 -27 20 c-46 37 -100 24 -130 -32 -14 -25 -19 -66 -23 -182 l-5 -150 -60 0
-60 0 -3 310 c-1 170 0 315 3 322 3 9 25 13 65 13 l60 0 0 -122z m2138 -1 l3
-119 19 25 c40 51 162 62 218 20 65 -48 67 -57 67 -261 l0 -187 -60 0 -60 0
-5 173 c-5 168 -6 174 -29 193 -42 34 -103 19 -133 -34 -8 -14 -15 -80 -18
-177 l-5 -155 -60 0 -60 0 -3 310 c-1 170 0 316 3 323 3 9 22 12 62 10 l58 -3
3 -118z m-2426 -4 l3 -58 45 -1 45 0 3 -42 3 -42 -50 0 -51 0 0 -130 c0 -117
2 -132 20 -150 11 -11 31 -20 45 -20 22 0 25 -4 25 -39 0 -38 -1 -38 -43 -44
-39 -6 -89 1 -128 17 -31 13 -39 54 -39 211 l0 155 -36 0 -35 0 3 42 c3 40 5
42 33 43 29 0 30 1 33 58 l3 57 59 0 59 0 3 -57z m2980 0 l3 -58 45 -1 45 0 3
-42 3 -42 -50 0 -51 0 0 -130 c0 -117 2 -132 20 -150 11 -11 31 -20 45 -20 22
0 25 -4 25 -39 0 -38 -1 -38 -43 -44 -39 -6 -89 1 -128 17 -31 13 -39 54 -39
211 l0 155 -36 0 -35 0 3 42 c3 40 5 42 33 43 29 0 30 1 33 58 l3 57 59 0 59
0 3 -57z m-1954 -72 c116 -59 156 -243 78 -362 -73 -109 -259 -130 -359 -41
-56 51 -77 101 -77 188 0 116 50 194 149 231 51 19 156 11 209 -16z m1012 1
c30 -22 30 -22 30 -2 0 18 6 20 65 20 l65 0 0 -227 c0 -134 -5 -245 -11 -268
-26 -93 -98 -145 -214 -153 -118 -7 -200 30 -231 105 -25 58 -21 63 46 63 43
0 60 -4 60 -13 0 -21 42 -54 76 -60 81 -15 144 34 144 111 l0 45 -20 -26 c-42
-53 -141 -61 -221 -19 -74 39 -109 104 -109 206 0 117 52 200 145 234 48 18
140 9 175 -16z m1341 17 c47 -15 97 -64 105 -107 l7 -32 -59 0 c-55 0 -60 2
-76 30 -14 24 -24 30 -51 30 -36 0 -57 -15 -57 -40 0 -27 30 -46 109 -71 47
-14 85 -34 107 -54 31 -30 34 -37 34 -90 0 -51 -3 -60 -32 -89 -61 -61 -206
-72 -280 -23 -38 26 -78 82 -78 108 0 16 8 19 60 19 55 0 61 -2 70 -24 17 -45
92 -63 124 -30 40 39 11 68 -108 104 -87 27 -126 70 -126 140 0 40 5 56 28 80
47 53 140 73 223 49z m-2041 -176 c6 -196 10 -208 79 -208 82 0 101 48 101
248 l0 138 63 -3 62 -3 0 -230 0 -230 -60 0 -60 0 -3 34 -3 34 -19 -31 c-23
-38 -84 -57 -150 -48 -52 7 -85 29 -117 76 -22 31 -23 43 -23 217 l0 184 63
-3 62 -3 5 -172z m2329 -171 c48 -38 19 -122 -42 -122 -41 0 -67 26 -67 67 0
62 62 94 109 55z"/>
<path d="M622 4048 c-13 -13 -16 -66 -6 -93 8 -21 56 -45 90 -45 26 0 26 1 22
59 -2 33 -10 66 -17 75 -16 19 -72 21 -89 4z"/>
<path d="M2305 3486 c-117 -49 -152 -70 -160 -97 -10 -31 13 -49 60 -49 88 0
86 -63 -4 -117 -61 -37 -131 -51 -167 -34 -32 14 -30 39 8 85 39 47 30 70 -29
74 -29 2 -70 -9 -154 -44 -63 -25 -115 -48 -117 -49 -2 -2 17 -55 43 -119 49
-123 56 -179 23 -199 -18 -12 -45 -2 -90 34 -37 30 -58 13 -58 -46 0 -59 55
-166 93 -179 34 -12 38 -8 48 55 8 51 20 69 47 69 30 0 72 -65 123 -190 29
-71 56 -130 60 -130 20 0 228 95 247 112 23 23 30 62 11 73 -6 4 -29 9 -52 11
-53 5 -73 24 -57 53 32 60 171 117 225 93 33 -15 32 -31 -5 -77 -37 -46 -38
-72 -5 -85 33 -13 75 -3 203 49 56 22 106 41 111 41 11 0 101 -232 101 -260 0
-30 -18 -60 -37 -60 -8 0 -31 14 -50 31 -21 18 -44 29 -56 27 -19 -3 -22 -11
-25 -55 -4 -64 27 -142 71 -179 51 -43 61 -32 83 84 6 32 46 29 76 -6 13 -16
45 -81 72 -145 27 -64 53 -117 60 -117 21 1 268 109 287 126 12 11 19 28 17
43 -3 22 -10 26 -57 36 -65 12 -81 31 -56 68 25 39 128 87 185 87 75 0 89 -28
40 -83 -38 -44 -39 -74 -3 -83 33 -9 84 4 195 51 l86 36 -49 121 c-51 127 -60
185 -33 212 21 22 28 20 67 -14 19 -16 44 -30 55 -30 45 0 40 93 -9 178 -49
87 -96 88 -104 2 -5 -56 -25 -78 -59 -62 -31 14 -64 70 -111 190 -21 50 -40
92 -45 92 -13 0 -218 -88 -244 -106 -31 -20 -43 -58 -26 -79 7 -8 29 -15 49
-15 21 0 46 -6 57 -14 17 -14 18 -17 4 -43 -20 -38 -129 -93 -185 -93 -70 0
-83 29 -35 83 33 38 39 71 14 81 -36 14 -86 3 -203 -44 -68 -28 -126 -49 -127
-47 -10 10 -104 250 -109 280 -8 39 8 77 31 77 9 0 35 -14 59 -31 65 -47 82
-33 76 59 -4 47 -25 95 -62 137 -49 55 -89 40 -89 -34 0 -44 -10 -61 -35 -61
-35 0 -67 46 -115 164 -23 58 -47 106 -54 105 -6 0 -56 -19 -111 -43z"/>
<path d="M674 3036 c-60 -26 -81 -93 -50 -155 20 -38 55 -51 137 -51 109 0
149 29 149 107 0 47 -22 81 -66 99 -42 18 -129 17 -170 0z"/>
<path d="M685 2485 c-51 -18 -75 -48 -75 -94 0 -72 53 -111 149 -111 105 0
151 33 151 107 0 53 -28 86 -86 102 -51 14 -90 13 -139 -4z"/>
<path d="M1862 714 c-35 -24 -52 -68 -52 -134 0 -77 19 -124 60 -145 92 -48
173 46 155 179 -13 93 -98 146 -163 100z"/>
<path d="M2923 720 c-39 -16 -63 -68 -63 -138 0 -74 18 -115 60 -137 37 -19
63 -19 101 1 39 20 59 68 59 141 0 110 -69 168 -157 133z"/>
</g>
</svg>
